<?xml version="1.0" encoding="utf-8"?>
<!-- Generator: Adobe Illustrator 21.1.0, SVG Export Plug-In . SVG Version: 6.00 Build 0)  -->
<svg version="1.1" id="Layer_1" xmlns="http://www.w3.org/2000/svg" xmlns:xlink="http://www.w3.org/1999/xlink" x="0px" y="0px"
	 viewBox="0 0 706.3 353" style="enable-background:new 0 0 706.3 353;" xml:space="preserve">
<style type="text/css">
	.st0{fill:#FFFFFF;}
</style>
<g>
	<path class="st0" d="M320.3,242.8c-3.8,7.4-8.3,14.5-13.3,21c3.3-6.5,6.2-13.3,8.5-20.3c-2.1,0.2-4.3,0.4-6.5,0.4
		c-5.7,16-14.1,30.7-24.7,43.5c-23.8,19.7-54.1,31.9-87.1,32.8c28.6-8.4,53.7-25.2,72.3-47.6c10.3-8.6,19.5-18.6,27.1-29.7
		c-2.1-0.4-4.3-0.8-6.3-1.4c-0.8,1.1-1.6,2.2-2.4,3.3c0.6-1.2,1.2-2.3,1.7-3.5c-1.9-0.6-3.9-1.2-5.7-1.9c-5,10.4-11.3,20.2-18.7,29
		c-24.7,20.5-56.5,32.8-91.1,32.8s-66.3-12.3-91.1-32.8c-20.5-24.7-32.8-56.5-32.8-91.1s12.4-66.3,32.9-91
		c24.7-20.5,56.5-32.8,91.1-32.8s66.3,12.3,91.1,32.8c7.3,8.8,13.6,18.6,18.7,29c1.9-0.7,3.8-1.4,5.7-1.9c-0.6-1.2-1.1-2.3-1.7-3.5
		c0.8,1.1,1.6,2.2,2.4,3.3c2.1-0.6,4.2-1,6.3-1.4c-7.7-11.1-16.8-21.1-27.1-29.7c-18.6-22.3-43.7-39.2-72.3-47.6
		c33,0.9,63.3,13.1,87.1,32.8c10.6,12.8,19.1,27.5,24.7,43.5c2.2,0,4.3,0.2,6.5,0.4c-2.3-7-5.2-13.8-8.5-20.3
		c5,6.6,9.5,13.6,13.3,21c2.6,0.5,5.1,1.1,7.6,1.9c-9.3-19.7-22.8-37-39.4-50.8C261.2,30.2,220.1,9.3,174.2,9.3s-87,20.9-114.4,53.6
		C27,90.3,6.1,131.4,6.1,177.3s20.9,87,53.6,114.4c27.3,32.8,68.5,53.6,114.4,53.6s87-20.9,114.4-53.6c16.5-13.8,30-31.1,39.4-50.8
		C325.4,241.7,322.9,242.3,320.3,242.8z M174.2,307.2c24.3,0,47.2-5.8,67.5-16.2c-19.3,14.7-42.3,24.6-67.5,28
		c-25.1-3.4-48.2-13.3-67.5-28C127,301.4,149.9,307.2,174.2,307.2z M44.3,177.3c0,24.3,5.8,47.2,16.2,67.5
		c-14.7-19.3-24.6-42.3-28-67.5c3.4-25.1,13.3-48.2,28-67.5C50.1,130.1,44.3,153,44.3,177.3z M241.6,63.6
		c-20.3-10.3-43.2-16.2-67.5-16.2s-47.2,5.8-67.5,16.2C126,48.9,149,39,174.2,35.6C199.3,39,222.3,48.9,241.6,63.6z M174.2,15.3
		c32.5,0,62.5,10.9,86.5,29.2c-20.3-10.3-43.2-16.2-67.5-16.2c-6.5,0-12.8,0.4-19.1,1.2c-6.2-0.8-12.6-1.2-19.1-1.2
		c-24.3,0-47.2,5.8-67.5,16.2C111.7,26.2,141.7,15.3,174.2,15.3z M64,67.2c23.8-19.7,54.1-31.9,87.1-32.8
		C122.5,42.9,97.5,59.7,78.8,82c-22.3,18.6-39.2,43.7-47.6,72.3C32.1,121.3,44.3,91,64,67.2z M12.1,177.3
		c0-32.5,10.9-62.5,29.2-86.5C31,111.1,25.2,134,25.2,158.2c0,6.5,0.4,12.8,1.2,19.1c-0.8,6.2-1.2,12.6-1.2,19.1
		c0,24.3,5.8,47.2,16.2,67.5C23,239.8,12.1,209.8,12.1,177.3z M64,287.4c-19.7-23.8-31.9-54.1-32.8-87.1
		c8.4,28.6,25.2,53.7,47.6,72.3c18.6,22.3,43.7,39.2,72.3,47.6C118.1,319.3,87.8,307.1,64,287.4z M174.2,339.3
		c-32.5,0-62.5-10.9-86.5-29.2c20.3,10.3,43.2,16.2,67.5,16.2c6.5,0,12.8-0.4,19.1-1.2c6.2,0.8,12.6,1.2,19.1,1.2
		c24.3,0,47.2-5.8,67.5-16.2C236.6,328.4,206.6,339.3,174.2,339.3z"/>
	<g>
		<path class="st0" d="M90.1,231.4V122.9h20.3v108.5H90.1z"/>
		<path class="st0" d="M207.1,122.8h20.5v108.6h-12.7v0.2l-57-73.3v73.1h-20.5V122.9H154l53.1,67.2V122.8z"/>
		<path class="st0" d="M363.8,177.8c-0.3,28-17.5,56.1-55.6,56.1s-55.8-27.4-55.8-55.9s18.3-57.2,55.8-57.2
			C345.5,120.8,364.1,149.4,363.8,177.8z M272.5,178.2c0.5,17.8,10.1,36.9,35.6,36.9s35.2-19.2,35.5-37c0.3-18.3-9.9-38.7-35.5-38.7
			S272.1,160,272.5,178.2z"/>
		<path class="st0" d="M488.5,177.8c-0.3,28-17.5,56.1-55.6,56.1s-55.8-27.4-55.8-55.9s18.3-57.2,55.8-57.2
			C470.2,120.8,488.8,149.4,488.5,177.8z M397.3,178.2c0.5,17.8,10.1,36.9,35.6,36.9c25.6,0,35.2-19.2,35.5-37
			c0.3-18.3-9.9-38.7-35.5-38.7C407.3,139.3,396.8,160,397.3,178.2z"/>
		<path class="st0" d="M557.5,231.9h-21.2L491.2,123h22.9l32.7,84.4l32.8-84.4h22.9L557.5,231.9z"/>
		<path class="st0" d="M670.4,210.9h-56.7l-9.3,20.5h-22.2l48.7-108.5h22.3l48.7,108.5h-22.3L670.4,210.9z M642.1,145.7L622,191.9
			h40.3L642.1,145.7z"/>
	</g>
</g>
</svg>
